<?xml version="1.0" standalone="no"?>
<!DOCTYPE svg PUBLIC "-//W3C//DTD SVG 20010904//EN"
 "http://www.w3.org/TR/2001/REC-SVG-20010904/DTD/svg10.dtd">
<svg version="1.0" xmlns="http://www.w3.org/2000/svg"
 width="1000.000000pt" height="600.000000pt" viewBox="0 0 1000.000000 600.000000"
 preserveAspectRatio="xMidYMid meet">

<g transform="translate(0.000000,600.000000) scale(0.100000,-0.100000)"
fill="#000000" stroke="none">
<path d="M0 3000 l0 -3000 5000 0 5000 0 0 3000 0 3000 -5000 0 -5000 0 0
-3000z m1600 930 c0 -27 -3 -30 -30 -30 -27 0 -30 3 -30 30 0 27 3 30 30 30
27 0 30 -3 30 -30z m130 0 c0 -27 -3 -30 -30 -30 -27 0 -30 3 -30 30 0 27 3
30 30 30 27 0 30 -3 30 -30z m230 0 l0 -30 -80 0 -80 0 0 30 0 30 80 0 80 0 0
-30z m661 -7 c28 -15 64 -43 79 -61 23 -28 37 -35 74 -39 92 -11 200 -102 226
-191 6 -20 14 -100 17 -177 4 -113 2 -144 -10 -159 -13 -18 -11 -22 23 -55 40
-38 58 -90 46 -135 -9 -37 -53 -84 -91 -98 -34 -12 -35 -13 -35 -68 l0 -55
-95 -95 -95 -95 0 -81 0 -82 61 -24 60 -24 108 108 108 108 180 0 c156 0 182
-2 187 -16 11 -28 7 -614 -4 -635 -10 -19 -32 -19 -955 -19 -923 0 -945 0
-955 19 -11 21 -14 159 -4 184 3 8 163 79 355 157 l349 143 0 81 0 81 -95 95
-95 95 0 57 c0 54 -1 57 -28 63 -16 3 -44 22 -63 41 -31 32 -34 40 -34 96 0
58 1 62 41 97 39 34 41 38 27 56 -12 16 -14 49 -11 170 5 168 13 197 73 264
47 52 93 80 147 89 l43 8 -3 57 c-3 52 -1 58 20 67 13 6 80 8 161 6 127 -5
141 -7 188 -33z m489 7 c0 -27 -3 -30 -30 -30 -27 0 -30 3 -30 30 0 27 3 30
30 30 27 0 30 -3 30 -30z m130 0 c0 -27 -3 -30 -30 -30 -27 0 -30 3 -30 30 0
27 3 30 30 30 27 0 30 -3 30 -30z m230 0 l0 -30 -80 0 -80 0 0 30 0 30 80 0
80 0 0 -30z m-1740 -130 l0 -30 -95 0 -95 0 0 30 0 30 95 0 95 0 0 -30z m160
0 c0 -29 -2 -30 -45 -30 -43 0 -45 1 -45 30 0 29 2 30 45 30 43 0 45 -1 45
-30z m1350 0 l0 -30 -95 0 -95 0 0 30 0 30 95 0 95 0 0 -30z m160 0 c0 -29 -2
-30 -45 -30 -43 0 -45 1 -45 30 0 29 2 30 45 30 43 0 45 -1 45 -30z m-1730
-130 l0 -30 -65 0 -65 0 0 30 0 30 65 0 65 0 0 -30z m120 0 c0 -25 -4 -30 -25
-30 -21 0 -25 5 -25 30 0 25 4 30 25 30 21 0 25 -5 25 -30z m130 0 c0 -27 -3
-30 -30 -30 -27 0 -30 3 -30 30 0 27 3 30 30 30 27 0 30 -3 30 -30z m1290 0
c0 -29 -2 -30 -45 -30 -43 0 -45 1 -45 30 0 29 2 30 45 30 43 0 45 -1 45 -30z
m130 0 c0 -27 -3 -30 -30 -30 -27 0 -30 3 -30 30 0 27 3 30 30 30 27 0 30 -3
30 -30z m130 0 c0 -27 -3 -30 -30 -30 -27 0 -30 3 -30 30 0 27 3 30 30 30 27
0 30 -3 30 -30z m-1840 -320 c0 -27 -3 -30 -30 -30 -27 0 -30 3 -30 30 0 27 3
30 30 30 27 0 30 -3 30 -30z m130 0 c0 -27 -3 -30 -30 -30 -27 0 -30 3 -30 30
0 27 3 30 30 30 27 0 30 -3 30 -30z m160 0 c0 -29 -2 -30 -45 -30 -43 0 -45 1
-45 30 0 29 2 30 45 30 43 0 45 -1 45 -30z m1260 0 c0 -27 -3 -30 -30 -30 -27
0 -30 3 -30 30 0 27 3 30 30 30 27 0 30 -3 30 -30z m130 0 c0 -27 -3 -30 -30
-30 -27 0 -30 3 -30 30 0 27 3 30 30 30 27 0 30 -3 30 -30z m160 0 c0 -29 -2
-30 -45 -30 -43 0 -45 1 -45 30 0 29 2 30 45 30 43 0 45 -1 45 -30z m-1770
-130 c0 -29 -2 -30 -45 -30 -43 0 -45 1 -45 30 0 29 2 30 45 30 43 0 45 -1 45
-30z m160 0 c0 -29 -2 -30 -45 -30 -43 0 -45 1 -45 30 0 29 2 30 45 30 43 0
45 -1 45 -30z m1380 0 c0 -29 -2 -30 -45 -30 -43 0 -45 1 -45 30 0 29 2 30 45
30 43 0 45 -1 45 -30z m160 0 c0 -29 -2 -30 -45 -30 -43 0 -45 1 -45 30 0 29
2 30 45 30 43 0 45 -1 45 -30z m-1700 -130 l0 -30 -80 0 -80 0 0 30 0 30 80 0
80 0 0 -30z m130 0 c0 -27 -3 -30 -30 -30 -27 0 -30 3 -30 30 0 27 3 30 30 30
27 0 30 -3 30 -30z m1510 0 l0 -30 -80 0 -80 0 0 30 0 30 80 0 80 0 0 -30z
m130 0 c0 -27 -3 -30 -30 -30 -27 0 -30 3 -30 30 0 27 3 30 30 30 27 0 30 -3
30 -30z m595 -14 c0 -16 -6 -31 -12 -33 -8 -3 -13 4 -13 16 0 19 -6 21 -50 21
-49 0 -50 -1 -50 -30 0 -23 5 -30 19 -30 10 0 21 7 25 15 11 30 26 14 26 -30
0 -44 -15 -60 -26 -30 -4 8 -15 15 -25 15 -15 0 -19 -7 -19 -35 l0 -35 50 0
c47 0 50 2 50 25 0 16 6 25 15 25 11 0 15 -11 15 -40 l0 -40 -95 0 c-78 0 -95
3 -95 15 0 8 7 15 15 15 12 0 15 16 15 80 0 64 -3 80 -15 80 -8 0 -15 7 -15
15 0 13 15 15 93 13 l92 -3 0 -29z m304 22 c11 -10 14 -10 18 0 9 23 23 12 23
-19 0 -17 -3 -29 -7 -27 -5 2 -20 10 -35 17 -35 18 -78 7 -78 -19 0 -14 11
-22 38 -29 20 -6 41 -11 46 -11 20 0 46 -35 46 -61 0 -48 -62 -75 -112 -48
-15 8 -22 8 -28 -1 -12 -20 -30 -2 -30 30 0 40 14 45 44 15 37 -37 102 -30 94
10 -4 21 -17 29 -78 47 -40 11 -45 17 -48 45 -2 23 3 35 20 47 27 19 69 21 87
4z m421 -38 c0 -38 -4 -50 -15 -50 -10 0 -15 11 -15 35 0 31 -3 35 -25 35 -25
0 -25 -1 -25 -80 l0 -80 30 0 c20 0 30 -5 30 -15 0 -12 -14 -15 -70 -15 -56 0
-70 3 -70 15 0 9 9 15 25 15 25 0 25 1 25 80 0 72 -2 80 -19 80 -15 0 -21 -8
-23 -32 -5 -55 -28 -46 -28 11 l0 51 90 0 90 0 0 -50z m340 35 c0 -10 -10 -15
-30 -15 l-30 0 0 -79 0 -80 33 -3 c59 -6 28 -23 -48 -26 -62 -2 -75 0 -75 13
0 10 10 15 30 15 l30 0 0 80 c0 79 0 80 -25 80 -16 0 -25 6 -25 15 0 12 14 15
70 15 56 0 70 -3 70 -15z m270 4 c0 -6 -9 -13 -19 -16 -19 -5 -19 -7 6 -77 14
-39 26 -72 28 -74 1 -1 14 30 29 69 24 64 25 74 11 81 -25 14 -7 28 36 28 28
0 39 -4 39 -15 0 -8 -6 -15 -14 -15 -8 0 -27 -36 -48 -92 -45 -124 -59 -125
-103 -4 -17 48 -39 93 -49 98 -9 5 -14 13 -11 19 9 13 95 11 95 -2z m460 -24
c0 -38 -19 -48 -27 -15 -4 16 -14 20 -49 20 -42 0 -44 -1 -44 -30 0 -23 4 -30
20 -30 11 0 20 7 20 15 0 8 7 15 15 15 11 0 15 -12 15 -45 0 -33 -4 -45 -15
-45 -8 0 -15 7 -15 15 0 8 -9 15 -20 15 -16 0 -20 -7 -20 -35 l0 -35 50 0 c47
0 50 2 50 26 0 16 5 24 13 22 6 -3 12 -20 12 -39 l0 -34 -92 -3 c-78 -2 -93 0
-93 13 0 8 7 15 15 15 12 0 15 16 15 80 0 64 -3 80 -15 80 -8 0 -15 7 -15 15
0 12 17 15 90 15 l90 0 0 -35z m274 -32 c56 -106 56 -106 56 -32 0 59 -2 67
-21 72 -33 9 -12 27 32 27 28 0 39 -4 39 -15 0 -8 -4 -15 -10 -15 -5 0 -11
-41 -12 -92 -2 -59 -7 -93 -15 -95 -6 -2 -28 26 -49 64 -65 118 -64 117 -64
36 0 -63 2 -71 21 -76 33 -9 12 -27 -32 -27 -28 0 -39 4 -39 15 0 8 5 15 10
15 6 0 10 33 10 80 0 47 -4 80 -10 80 -5 0 -10 7 -10 15 0 10 10 15 29 15 25
0 33 -8 65 -67z m762 56 c4 -8 9 -8 17 0 20 20 27 11 27 -34 0 -51 -13 -58
-32 -17 -16 34 -56 40 -88 14 -17 -14 -23 -29 -23 -62 0 -71 48 -95 126 -65
28 12 21 -20 -8 -33 -61 -28 -136 6 -148 67 -9 42 10 97 40 121 28 22 78 27
89 9z m372 -84 c18 -49 40 -94 48 -98 24 -13 5 -27 -37 -27 -28 0 -39 4 -39
15 0 8 7 15 15 15 17 0 19 9 6 28 -13 21 -95 12 -99 -10 -2 -11 3 -18 12 -18
9 0 16 -7 16 -15 0 -11 -12 -15 -45 -15 -33 0 -45 4 -45 15 0 8 6 15 13 15 10
0 67 130 67 153 0 4 -9 7 -20 7 -11 0 -20 7 -20 16 0 12 10 14 47 12 l48 -3
33 -90z m360 79 c29 -20 30 -76 1 -95 -20 -14 -20 -15 15 -53 40 -43 44 -56
18 -56 -10 0 -32 20 -50 45 -38 55 -72 62 -72 15 0 -20 5 -30 15 -30 8 0 15
-7 15 -15 0 -11 -12 -15 -44 -15 -48 0 -72 18 -37 27 19 5 21 13 21 83 0 70
-2 78 -21 83 -40 11 -7 27 54 27 40 0 70 -6 85 -16z m282 1 c0 -8 -7 -15 -15
-15 -8 0 -15 -2 -15 -4 0 -10 53 -147 55 -144 2 2 14 36 29 76 21 58 23 72 11
72 -8 0 -15 7 -15 15 0 11 11 15 39 15 44 0 61 -14 34 -28 -9 -6 -31 -50 -49
-98 -43 -121 -57 -120 -102 4 -21 56 -40 92 -48 92 -8 0 -14 7 -14 15 0 11 12
15 45 15 33 0 45 -4 45 -15z m438 -80 c18 -49 40 -94 48 -98 24 -13 5 -27 -37
-27 -28 0 -39 4 -39 15 0 8 7 15 15 15 17 0 19 9 6 28 -13 21 -95 12 -99 -10
-2 -11 3 -18 12 -18 9 0 16 -7 16 -15 0 -11 -12 -15 -45 -15 -33 0 -45 4 -45
15 0 8 6 15 13 15 10 0 67 130 67 153 0 4 -9 7 -20 7 -11 0 -20 7 -20 16 0 12
10 14 47 12 l48 -3 33 -90z m405 80 c-1 -5 -11 -11 -22 -13 -16 -3 -19 -13
-23 -83 -4 -90 -16 -109 -73 -109 -47 0 -75 25 -75 66 0 24 5 34 15 34 10 0
15 -10 15 -30 0 -24 5 -31 27 -36 45 -12 58 5 61 85 l3 71 -35 0 c-34 0 -52
11 -39 24 11 11 148 2 146 -9z m315 -80 c18 -49 40 -94 48 -98 24 -13 5 -27
-37 -27 -28 0 -39 4 -39 15 0 8 7 15 15 15 17 0 19 9 6 28 -13 21 -95 12 -99
-10 -2 -11 3 -18 12 -18 9 0 16 -7 16 -15 0 -11 -12 -15 -45 -15 -33 0 -45 4
-45 15 0 8 6 15 13 15 10 0 67 130 67 153 0 4 -9 7 -20 7 -11 0 -20 7 -20 16
0 12 10 14 47 12 l48 -3 33 -90z m332 80 c0 -10 -10 -15 -30 -15 l-30 0 0 -80
0 -80 45 0 c45 0 45 0 45 35 0 24 5 35 15 35 11 0 15 -12 15 -50 l0 -50 -95 0
c-78 0 -95 3 -95 15 0 8 9 15 20 15 18 0 20 7 20 80 0 73 -2 80 -20 80 -11 0
-20 7 -20 15 0 12 14 15 65 15 51 0 65 -3 65 -15z m-7800 -355 c0 -27 -3 -30
-30 -30 -27 0 -30 3 -30 30 0 27 3 30 30 30 27 0 30 -3 30 -30z m130 0 c0 -27
-3 -30 -30 -30 -27 0 -30 3 -30 30 0 27 3 30 30 30 27 0 30 -3 30 -30z m230 0
l0 -30 -80 0 -80 0 0 30 0 30 80 0 80 0 0 -30z m-230 -130 l0 -30 -95 0 -95 0
0 30 0 30 95 0 95 0 0 -30z m160 0 c0 -29 -2 -30 -45 -30 -43 0 -45 1 -45 30
0 29 2 30 45 30 43 0 45 -1 45 -30z m130 0 c0 -27 -3 -30 -30 -30 -27 0 -30 3
-30 30 0 27 3 30 30 30 27 0 30 -3 30 -30z m-350 -130 l0 -30 -65 0 -65 0 0
30 0 30 65 0 65 0 0 -30z m120 0 c0 -25 -4 -30 -25 -30 -21 0 -25 5 -25 30 0
25 4 30 25 30 21 0 25 -5 25 -30z"/>
<path d="M2317 3892 c-4 -5 3 -27 15 -50 26 -55 16 -68 -60 -75 -94 -8 -157
-49 -198 -127 -14 -27 -19 -65 -22 -168 -4 -116 -2 -135 13 -152 13 -15 22
-17 36 -9 17 9 19 23 19 122 0 62 4 118 9 126 8 13 30 13 163 0 84 -7 180 -14
213 -14 33 0 129 7 213 14 133 13 155 13 163 0 5 -8 9 -64 9 -125 0 -87 3
-114 15 -124 13 -10 19 -10 35 5 18 16 20 31 20 130 0 173 -32 250 -123 296
-22 12 -63 23 -92 26 -48 5 -56 9 -82 47 -46 65 -87 80 -224 84 -64 2 -119 0
-122 -6z"/>
<path d="M2180 3408 c0 -103 0 -105 -30 -133 l-30 -29 0 -170 0 -171 132 -132
133 -133 120 0 120 0 133 133 132 132 0 171 0 170 -30 29 c-30 28 -30 30 -30
132 l0 104 -42 -5 c-187 -25 -367 -25 -560 0 l-48 7 0 -105z m394 -131 c17
-12 14 -21 -43 -135 -34 -67 -65 -122 -69 -122 -5 0 -16 6 -26 13 -17 12 -14
21 43 135 34 67 65 122 69 122 5 0 16 -6 26 -13z m-218 -38 c3 -6 -8 -25 -25
-43 -17 -18 -31 -36 -31 -41 0 -5 14 -24 32 -42 26 -27 29 -35 18 -48 -7 -8
-17 -15 -23 -15 -16 0 -107 91 -107 107 0 7 21 34 48 60 46 48 68 53 88 22z
m402 -39 c18 -21 32 -43 32 -47 0 -5 -24 -33 -54 -62 l-54 -53 -16 23 c-15 22
-14 25 14 54 17 17 30 35 30 40 0 5 -14 24 -32 42 -30 32 -31 33 -14 52 16 18
20 19 41 5 12 -8 36 -32 53 -54z m-348 -300 c0 -27 -3 -30 -30 -30 -27 0 -30
3 -30 30 0 27 3 30 30 30 27 0 30 -3 30 -30z m120 0 c0 -25 -4 -30 -25 -30
-21 0 -25 5 -25 30 0 25 4 30 25 30 21 0 25 -5 25 -30z m130 0 c0 -27 -3 -30
-30 -30 -27 0 -30 3 -30 30 0 27 3 30 30 30 27 0 30 -3 30 -30z"/>
<path d="M2015 3196 c-33 -33 -33 -79 0 -111 13 -14 29 -25 35 -25 13 0 14
147 0 155 -5 3 -21 -5 -35 -19z"/>
<path d="M2956 3213 c-10 -10 -7 -141 4 -148 5 -3 21 5 35 19 26 26 32 64 15
96 -12 23 -44 42 -54 33z"/>
<path d="M3138 2548 l-3 -93 -93 -3 -92 -3 2 -177 3 -177 225 0 225 0 3 273 2
272 -134 0 -135 0 -3 -92z m202 -68 l0 -30 -60 0 -60 0 0 30 0 30 60 0 60 0 0
-30z m-260 -130 c0 -27 -3 -30 -30 -30 -27 0 -30 3 -30 30 0 27 3 30 30 30 27
0 30 -3 30 -30z m130 0 c0 -27 -3 -30 -30 -30 -27 0 -30 3 -30 30 0 27 3 30
30 30 27 0 30 -3 30 -30z m130 0 c0 -27 -3 -30 -30 -30 -27 0 -30 3 -30 30 0
27 3 30 30 30 27 0 30 -3 30 -30z m-190 -130 l0 -30 -65 0 -65 0 0 30 0 30 65
0 65 0 0 -30z m190 0 l0 -30 -60 0 -60 0 0 30 0 30 60 0 60 0 0 -30z"/>
<path d="M2310 2573 c0 -45 3 -50 43 -77 23 -16 66 -47 95 -69 l53 -40 52 37
c29 21 73 52 99 69 46 31 48 34 48 80 0 51 -7 57 -35 27 -16 -18 -31 -20 -160
-20 -129 0 -144 2 -160 20 -28 30 -35 24 -35 -27z"/>
<path d="M3042 2557 c-18 -18 -32 -36 -32 -41 0 -4 17 -6 38 -4 32 3 37 6 40
32 5 45 -11 49 -46 13z"/>
<path d="M2100 2409 c-91 -38 -232 -96 -315 -130 -203 -83 -187 -71 -183 -132
l3 -52 643 -3 642 -2 0 164 0 164 -42 15 c-24 8 -59 22 -79 31 -37 15 -37 15
-80 -18 -24 -18 -75 -53 -112 -79 -80 -54 -66 -57 -208 44 -53 38 -98 69 -100
68 -2 -1 -78 -32 -169 -70z m430 -189 c0 -25 -4 -30 -25 -30 -21 0 -25 5 -25
30 0 25 4 30 25 30 21 0 25 -5 25 -30z"/>
<path d="M7196 3040 c-9 -23 -15 -45 -12 -47 2 -2 18 -3 34 -1 l30 3 -17 44
-18 44 -17 -43z"/>
<path d="M7540 3045 c0 -30 3 -35 24 -35 39 0 56 11 56 35 0 24 -17 35 -56 35
-21 0 -24 -5 -24 -35z"/>
<path d="M8276 3040 c-9 -23 -15 -45 -12 -47 2 -2 18 -3 34 -1 l30 3 -17 44
-18 44 -17 -43z"/>
<path d="M8996 3040 c-9 -23 -15 -45 -12 -47 2 -2 18 -3 34 -1 l30 3 -17 44
-18 44 -17 -43z"/>
</g>
</svg>
